<mxfile host="Electron" agent="Mozilla/5.0 (Windows NT 10.0; Win64; x64) AppleWebKit/537.36 (KHTML, like Gecko) draw.io/26.0.9 Chrome/128.0.6613.186 Electron/32.2.5 Safari/537.36" version="26.0.9" pages="2">
  <diagram name="Diagrama-ER" id="im4rLIGjDp1ugVJvaZfw">
    <mxGraphModel dx="1434" dy="1236" grid="0" gridSize="10" guides="1" tooltips="1" connect="1" arrows="0" fold="1" page="0" pageScale="1" pageWidth="827" pageHeight="1169" math="0" shadow="0">
      <root>
        <mxCell id="0" />
        <mxCell id="1" parent="0" />
        <mxCell id="M3GUtny6w7VFZLUFsRHC-83" style="rounded=0;orthogonalLoop=1;jettySize=auto;html=1;exitX=1;exitY=0.5;exitDx=0;exitDy=0;entryX=0.25;entryY=0;entryDx=0;entryDy=0;" parent="1" source="sAkTe9yY6t8Xh1nZLeKb-22" target="sAkTe9yY6t8Xh1nZLeKb-1" edge="1">
          <mxGeometry relative="1" as="geometry" />
        </mxCell>
        <mxCell id="sAkTe9yY6t8Xh1nZLeKb-22" value="" style="ellipse;whiteSpace=wrap;html=1;fillColor=#a0522d;fontColor=#ffffff;strokeColor=#6D1F00;" parent="1" vertex="1">
          <mxGeometry x="106.5" y="18" width="122.5" height="45" as="geometry" />
        </mxCell>
        <mxCell id="M3GUtny6w7VFZLUFsRHC-84" style="rounded=0;orthogonalLoop=1;jettySize=auto;html=1;exitX=1;exitY=1;exitDx=0;exitDy=0;entryX=0.363;entryY=0.083;entryDx=0;entryDy=0;entryPerimeter=0;" parent="1" source="sAkTe9yY6t8Xh1nZLeKb-23" target="sAkTe9yY6t8Xh1nZLeKb-1" edge="1">
          <mxGeometry relative="1" as="geometry">
            <mxPoint x="305.73684210526335" y="122.1052631578948" as="targetPoint" />
          </mxGeometry>
        </mxCell>
        <mxCell id="sAkTe9yY6t8Xh1nZLeKb-23" value="" style="ellipse;whiteSpace=wrap;html=1;fillColor=#a0522d;fontColor=#ffffff;strokeColor=#6D1F00;" parent="1" vertex="1">
          <mxGeometry x="112.5" y="-38" width="142" height="47" as="geometry" />
        </mxCell>
        <mxCell id="M3GUtny6w7VFZLUFsRHC-98" style="edgeStyle=orthogonalEdgeStyle;rounded=0;orthogonalLoop=1;jettySize=auto;html=1;exitX=0.5;exitY=0;exitDx=0;exitDy=0;" parent="1" source="sAkTe9yY6t8Xh1nZLeKb-25" target="sAkTe9yY6t8Xh1nZLeKb-2" edge="1">
          <mxGeometry relative="1" as="geometry" />
        </mxCell>
        <mxCell id="sAkTe9yY6t8Xh1nZLeKb-25" value="" style="ellipse;whiteSpace=wrap;html=1;fillColor=#a0522d;fontColor=#ffffff;strokeColor=#6D1F00;" parent="1" vertex="1">
          <mxGeometry x="299" y="570" width="128" height="50" as="geometry" />
        </mxCell>
        <mxCell id="M3GUtny6w7VFZLUFsRHC-99" style="edgeStyle=orthogonalEdgeStyle;rounded=0;orthogonalLoop=1;jettySize=auto;html=1;exitX=0.5;exitY=0;exitDx=0;exitDy=0;entryX=0.25;entryY=1;entryDx=0;entryDy=0;" parent="1" source="sAkTe9yY6t8Xh1nZLeKb-26" target="sAkTe9yY6t8Xh1nZLeKb-2" edge="1">
          <mxGeometry relative="1" as="geometry" />
        </mxCell>
        <mxCell id="sAkTe9yY6t8Xh1nZLeKb-26" value="" style="ellipse;whiteSpace=wrap;html=1;fillColor=#a0522d;fontColor=#ffffff;strokeColor=#6D1F00;" parent="1" vertex="1">
          <mxGeometry x="175" y="574" width="98" height="42" as="geometry" />
        </mxCell>
        <mxCell id="M3GUtny6w7VFZLUFsRHC-100" style="edgeStyle=orthogonalEdgeStyle;rounded=0;orthogonalLoop=1;jettySize=auto;html=1;exitX=0.5;exitY=0;exitDx=0;exitDy=0;entryX=0;entryY=0.5;entryDx=0;entryDy=0;" parent="1" source="sAkTe9yY6t8Xh1nZLeKb-27" target="sAkTe9yY6t8Xh1nZLeKb-2" edge="1">
          <mxGeometry relative="1" as="geometry" />
        </mxCell>
        <mxCell id="sAkTe9yY6t8Xh1nZLeKb-27" value="" style="ellipse;whiteSpace=wrap;html=1;fillColor=#a0522d;fontColor=#ffffff;strokeColor=#6D1F00;" parent="1" vertex="1">
          <mxGeometry x="48" y="570" width="98" height="42" as="geometry" />
        </mxCell>
        <mxCell id="sAkTe9yY6t8Xh1nZLeKb-30" value="" style="ellipse;whiteSpace=wrap;html=1;fillColor=#a0522d;fontColor=#ffffff;strokeColor=#6D1F00;" parent="1" vertex="1">
          <mxGeometry x="110.5" y="75" width="107" height="33" as="geometry" />
        </mxCell>
        <mxCell id="M3GUtny6w7VFZLUFsRHC-81" style="rounded=0;orthogonalLoop=1;jettySize=auto;html=1;exitX=1;exitY=1;exitDx=0;exitDy=0;entryX=0;entryY=0;entryDx=0;entryDy=0;" parent="1" source="sAkTe9yY6t8Xh1nZLeKb-20" target="sAkTe9yY6t8Xh1nZLeKb-1" edge="1">
          <mxGeometry relative="1" as="geometry" />
        </mxCell>
        <mxCell id="sAkTe9yY6t8Xh1nZLeKb-20" value="" style="ellipse;whiteSpace=wrap;html=1;fillColor=#a0522d;fontColor=#ffffff;strokeColor=#6D1F00;" parent="1" vertex="1">
          <mxGeometry x="106.5" y="115" width="98" height="42" as="geometry" />
        </mxCell>
        <mxCell id="sAkTe9yY6t8Xh1nZLeKb-1" value="Partida" style="rounded=0;whiteSpace=wrap;html=1;fillColor=#6d8764;fontColor=#ffffff;strokeColor=#3A5431;" parent="1" vertex="1">
          <mxGeometry x="278" y="215" width="120" height="60" as="geometry" />
        </mxCell>
        <mxCell id="sAkTe9yY6t8Xh1nZLeKb-2" value="Jugador" style="rounded=0;whiteSpace=wrap;html=1;fillColor=#6d8764;fontColor=#ffffff;strokeColor=#3A5431;" parent="1" vertex="1">
          <mxGeometry x="278" y="448" width="120" height="60" as="geometry" />
        </mxCell>
        <mxCell id="sAkTe9yY6t8Xh1nZLeKb-3" value="ronda_id" style="text;html=1;align=center;verticalAlign=middle;whiteSpace=wrap;rounded=0;fillColor=#a0522d;fontColor=#ffffff;strokeColor=#6D1F00;" parent="1" vertex="1">
          <mxGeometry x="132.5" y="75" width="60" height="30" as="geometry" />
        </mxCell>
        <mxCell id="sAkTe9yY6t8Xh1nZLeKb-4" value="jugador_blancas_id" style="text;html=1;align=center;verticalAlign=middle;whiteSpace=wrap;rounded=0;fillColor=#a0522d;fontColor=#ffffff;strokeColor=#6D1F00;" parent="1" vertex="1">
          <mxGeometry x="136.5" y="25.5" width="60" height="30" as="geometry" />
        </mxCell>
        <mxCell id="sAkTe9yY6t8Xh1nZLeKb-5" value="jugador_negras_id" style="text;html=1;align=center;verticalAlign=middle;whiteSpace=wrap;rounded=0;fillColor=#a0522d;fontColor=#ffffff;strokeColor=#6D1F00;" parent="1" vertex="1">
          <mxGeometry x="162.5" y="-29.5" width="60" height="30" as="geometry" />
        </mxCell>
        <mxCell id="sAkTe9yY6t8Xh1nZLeKb-8" value="nombre" style="text;html=1;align=center;verticalAlign=middle;whiteSpace=wrap;rounded=0;fillColor=#a0522d;fontColor=#ffffff;strokeColor=#6D1F00;" parent="1" vertex="1">
          <mxGeometry x="67" y="576" width="60" height="30" as="geometry" />
        </mxCell>
        <mxCell id="sAkTe9yY6t8Xh1nZLeKb-10" value="&lt;u&gt;partida_id&lt;/u&gt;" style="text;html=1;align=center;verticalAlign=middle;whiteSpace=wrap;rounded=0;fillColor=#a0522d;fontColor=#ffffff;strokeColor=#6D1F00;" parent="1" vertex="1">
          <mxGeometry x="125.5" y="121" width="61" height="30" as="geometry" />
        </mxCell>
        <mxCell id="sAkTe9yY6t8Xh1nZLeKb-11" value="jugador_id" style="text;html=1;align=center;verticalAlign=middle;whiteSpace=wrap;rounded=0;fillColor=#a0522d;fontColor=#ffffff;strokeColor=#6D1F00;" parent="1" vertex="1">
          <mxGeometry x="194" y="580" width="60" height="30" as="geometry" />
        </mxCell>
        <mxCell id="sAkTe9yY6t8Xh1nZLeKb-12" value="fecha_inscripcion" style="text;html=1;align=center;verticalAlign=middle;whiteSpace=wrap;rounded=0;fillColor=#a0522d;fontColor=#ffffff;strokeColor=#6D1F00;" parent="1" vertex="1">
          <mxGeometry x="337" y="580" width="60" height="30" as="geometry" />
        </mxCell>
        <mxCell id="sAkTe9yY6t8Xh1nZLeKb-13" value="Tiene" style="rhombus;whiteSpace=wrap;html=1;fillColor=#e3c800;fontColor=#000000;strokeColor=#B09500;" parent="1" vertex="1">
          <mxGeometry x="298" y="321" width="80" height="80" as="geometry" />
        </mxCell>
        <mxCell id="sAkTe9yY6t8Xh1nZLeKb-18" value="" style="endArrow=none;html=1;rounded=0;entryX=0.5;entryY=1;entryDx=0;entryDy=0;exitX=0.5;exitY=0;exitDx=0;exitDy=0;" parent="1" source="sAkTe9yY6t8Xh1nZLeKb-13" target="sAkTe9yY6t8Xh1nZLeKb-1" edge="1">
          <mxGeometry width="50" height="50" relative="1" as="geometry">
            <mxPoint x="411" y="451" as="sourcePoint" />
            <mxPoint x="461" y="401" as="targetPoint" />
          </mxGeometry>
        </mxCell>
        <mxCell id="sAkTe9yY6t8Xh1nZLeKb-19" value="" style="endArrow=none;html=1;rounded=0;entryX=0.5;entryY=1;entryDx=0;entryDy=0;exitX=0.5;exitY=0;exitDx=0;exitDy=0;" parent="1" source="sAkTe9yY6t8Xh1nZLeKb-2" edge="1">
          <mxGeometry width="50" height="50" relative="1" as="geometry">
            <mxPoint x="337.83" y="447" as="sourcePoint" />
            <mxPoint x="337.83" y="401" as="targetPoint" />
          </mxGeometry>
        </mxCell>
        <mxCell id="M3GUtny6w7VFZLUFsRHC-86" style="rounded=0;orthogonalLoop=1;jettySize=auto;html=1;exitX=0.5;exitY=1;exitDx=0;exitDy=0;entryX=0.75;entryY=0;entryDx=0;entryDy=0;" parent="1" source="M3GUtny6w7VFZLUFsRHC-3" target="sAkTe9yY6t8Xh1nZLeKb-1" edge="1">
          <mxGeometry relative="1" as="geometry" />
        </mxCell>
        <mxCell id="M3GUtny6w7VFZLUFsRHC-3" value="ganador_id" style="ellipse;whiteSpace=wrap;html=1;fillColor=#a0522d;fontColor=#ffffff;strokeColor=#6D1F00;" parent="1" vertex="1">
          <mxGeometry x="284.5" y="-86" width="98" height="42" as="geometry" />
        </mxCell>
        <mxCell id="M3GUtny6w7VFZLUFsRHC-4" value="duracion" style="ellipse;whiteSpace=wrap;html=1;fillColor=#a0522d;fontColor=#ffffff;strokeColor=#6D1F00;" parent="1" vertex="1">
          <mxGeometry x="373.5" y="-58" width="98" height="42" as="geometry" />
        </mxCell>
        <mxCell id="M3GUtny6w7VFZLUFsRHC-88" style="rounded=0;orthogonalLoop=1;jettySize=auto;html=1;exitX=0;exitY=1;exitDx=0;exitDy=0;entryX=1;entryY=0;entryDx=0;entryDy=0;" parent="1" source="M3GUtny6w7VFZLUFsRHC-5" target="sAkTe9yY6t8Xh1nZLeKb-1" edge="1">
          <mxGeometry relative="1" as="geometry" />
        </mxCell>
        <mxCell id="M3GUtny6w7VFZLUFsRHC-5" value="estado" style="ellipse;whiteSpace=wrap;html=1;fillColor=#a0522d;fontColor=#ffffff;strokeColor=#6D1F00;" parent="1" vertex="1">
          <mxGeometry x="467.5" y="-21" width="98" height="42" as="geometry" />
        </mxCell>
        <mxCell id="M3GUtny6w7VFZLUFsRHC-89" style="rounded=0;orthogonalLoop=1;jettySize=auto;html=1;exitX=0;exitY=1;exitDx=0;exitDy=0;" parent="1" source="M3GUtny6w7VFZLUFsRHC-6" edge="1">
          <mxGeometry relative="1" as="geometry">
            <mxPoint x="400" y="220" as="targetPoint" />
          </mxGeometry>
        </mxCell>
        <mxCell id="M3GUtny6w7VFZLUFsRHC-6" value="fecha_hora_inicio" style="ellipse;whiteSpace=wrap;html=1;fillColor=#a0522d;fontColor=#ffffff;strokeColor=#6D1F00;" parent="1" vertex="1">
          <mxGeometry x="471.5" y="33" width="98" height="42" as="geometry" />
        </mxCell>
        <mxCell id="M3GUtny6w7VFZLUFsRHC-85" style="rounded=0;orthogonalLoop=1;jettySize=auto;html=1;exitX=1;exitY=1;exitDx=0;exitDy=0;" parent="1" source="M3GUtny6w7VFZLUFsRHC-7" target="sAkTe9yY6t8Xh1nZLeKb-1" edge="1">
          <mxGeometry relative="1" as="geometry" />
        </mxCell>
        <mxCell id="M3GUtny6w7VFZLUFsRHC-7" value="fecha_hora_fin" style="ellipse;whiteSpace=wrap;html=1;fillColor=#a0522d;fontColor=#ffffff;strokeColor=#6D1F00;" parent="1" vertex="1">
          <mxGeometry x="183.5" y="-86" width="98" height="42" as="geometry" />
        </mxCell>
        <mxCell id="M3GUtny6w7VFZLUFsRHC-8" value="Ronda" style="rounded=0;whiteSpace=wrap;html=1;fillColor=#6d8764;fontColor=#ffffff;strokeColor=#3A5431;" parent="1" vertex="1">
          <mxGeometry x="606" y="217" width="120" height="60" as="geometry" />
        </mxCell>
        <mxCell id="M3GUtny6w7VFZLUFsRHC-9" value="ronda_id" style="ellipse;whiteSpace=wrap;html=1;fillColor=#a0522d;fontColor=#ffffff;strokeColor=#6D1F00;" parent="1" vertex="1">
          <mxGeometry x="596" y="62.5" width="98" height="42" as="geometry" />
        </mxCell>
        <mxCell id="M3GUtny6w7VFZLUFsRHC-91" style="edgeStyle=orthogonalEdgeStyle;rounded=0;orthogonalLoop=1;jettySize=auto;html=1;exitX=0;exitY=1;exitDx=0;exitDy=0;" parent="1" source="M3GUtny6w7VFZLUFsRHC-10" target="M3GUtny6w7VFZLUFsRHC-8" edge="1">
          <mxGeometry relative="1" as="geometry" />
        </mxCell>
        <mxCell id="M3GUtny6w7VFZLUFsRHC-10" value="torneo_id" style="ellipse;whiteSpace=wrap;html=1;fillColor=#a0522d;fontColor=#ffffff;strokeColor=#6D1F00;" parent="1" vertex="1">
          <mxGeometry x="694" y="68.5" width="98" height="42" as="geometry" />
        </mxCell>
        <mxCell id="M3GUtny6w7VFZLUFsRHC-93" style="edgeStyle=orthogonalEdgeStyle;rounded=0;orthogonalLoop=1;jettySize=auto;html=1;exitX=0;exitY=1;exitDx=0;exitDy=0;entryX=1;entryY=0.5;entryDx=0;entryDy=0;" parent="1" source="M3GUtny6w7VFZLUFsRHC-11" target="M3GUtny6w7VFZLUFsRHC-8" edge="1">
          <mxGeometry relative="1" as="geometry" />
        </mxCell>
        <mxCell id="M3GUtny6w7VFZLUFsRHC-11" value="fecha" style="ellipse;whiteSpace=wrap;html=1;fillColor=#a0522d;fontColor=#ffffff;strokeColor=#6D1F00;" parent="1" vertex="1">
          <mxGeometry x="808" y="141" width="98" height="42" as="geometry" />
        </mxCell>
        <mxCell id="M3GUtny6w7VFZLUFsRHC-92" style="edgeStyle=orthogonalEdgeStyle;rounded=0;orthogonalLoop=1;jettySize=auto;html=1;exitX=0;exitY=1;exitDx=0;exitDy=0;entryX=1;entryY=0;entryDx=0;entryDy=0;" parent="1" source="M3GUtny6w7VFZLUFsRHC-12" target="M3GUtny6w7VFZLUFsRHC-8" edge="1">
          <mxGeometry relative="1" as="geometry" />
        </mxCell>
        <mxCell id="M3GUtny6w7VFZLUFsRHC-12" value="nombre_ronda" style="ellipse;whiteSpace=wrap;html=1;fillColor=#a0522d;fontColor=#ffffff;strokeColor=#6D1F00;" parent="1" vertex="1">
          <mxGeometry x="788" y="87.5" width="98" height="42" as="geometry" />
        </mxCell>
        <mxCell id="M3GUtny6w7VFZLUFsRHC-13" value="Torneo" style="rounded=0;whiteSpace=wrap;html=1;fillColor=#6d8764;fontColor=#ffffff;strokeColor=#3A5431;" parent="1" vertex="1">
          <mxGeometry x="613" y="448" width="120" height="60" as="geometry" />
        </mxCell>
        <mxCell id="M3GUtny6w7VFZLUFsRHC-95" style="rounded=0;orthogonalLoop=1;jettySize=auto;html=1;exitX=1;exitY=0;exitDx=0;exitDy=0;entryX=0.25;entryY=1;entryDx=0;entryDy=0;" parent="1" source="M3GUtny6w7VFZLUFsRHC-14" target="M3GUtny6w7VFZLUFsRHC-13" edge="1">
          <mxGeometry relative="1" as="geometry" />
        </mxCell>
        <mxCell id="M3GUtny6w7VFZLUFsRHC-14" value="nombre" style="ellipse;whiteSpace=wrap;html=1;fillColor=#a0522d;fontColor=#ffffff;strokeColor=#6D1F00;" parent="1" vertex="1">
          <mxGeometry x="519" y="571" width="98" height="42" as="geometry" />
        </mxCell>
        <mxCell id="M3GUtny6w7VFZLUFsRHC-96" style="edgeStyle=orthogonalEdgeStyle;rounded=0;orthogonalLoop=1;jettySize=auto;html=1;exitX=0.5;exitY=0;exitDx=0;exitDy=0;" parent="1" source="M3GUtny6w7VFZLUFsRHC-15" target="M3GUtny6w7VFZLUFsRHC-13" edge="1">
          <mxGeometry relative="1" as="geometry" />
        </mxCell>
        <mxCell id="M3GUtny6w7VFZLUFsRHC-15" value="torneo_id" style="ellipse;whiteSpace=wrap;html=1;fillColor=#a0522d;fontColor=#ffffff;strokeColor=#6D1F00;" parent="1" vertex="1">
          <mxGeometry x="638" y="578" width="98" height="42" as="geometry" />
        </mxCell>
        <mxCell id="M3GUtny6w7VFZLUFsRHC-94" style="rounded=0;orthogonalLoop=1;jettySize=auto;html=1;exitX=1;exitY=0;exitDx=0;exitDy=0;entryX=0;entryY=0.5;entryDx=0;entryDy=0;" parent="1" source="M3GUtny6w7VFZLUFsRHC-16" target="M3GUtny6w7VFZLUFsRHC-13" edge="1">
          <mxGeometry relative="1" as="geometry" />
        </mxCell>
        <mxCell id="M3GUtny6w7VFZLUFsRHC-16" value="fecha_fin" style="ellipse;whiteSpace=wrap;html=1;fillColor=#a0522d;fontColor=#ffffff;strokeColor=#6D1F00;" parent="1" vertex="1">
          <mxGeometry x="486" y="500" width="98" height="42" as="geometry" />
        </mxCell>
        <mxCell id="M3GUtny6w7VFZLUFsRHC-17" value="fecha_inicio" style="ellipse;whiteSpace=wrap;html=1;fillColor=#a0522d;fontColor=#ffffff;strokeColor=#6D1F00;" parent="1" vertex="1">
          <mxGeometry x="757" y="578" width="98" height="42" as="geometry" />
        </mxCell>
        <mxCell id="M3GUtny6w7VFZLUFsRHC-28" value="Tiene" style="rhombus;whiteSpace=wrap;html=1;fillColor=#e3c800;fontColor=#000000;strokeColor=#B09500;" parent="1" vertex="1">
          <mxGeometry x="626" y="321" width="80" height="80" as="geometry" />
        </mxCell>
        <mxCell id="M3GUtny6w7VFZLUFsRHC-29" value="Tiene" style="rhombus;whiteSpace=wrap;html=1;fillColor=#e3c800;fontColor=#000000;strokeColor=#B09500;" parent="1" vertex="1">
          <mxGeometry x="461" y="205" width="80" height="80" as="geometry" />
        </mxCell>
        <mxCell id="M3GUtny6w7VFZLUFsRHC-33" value="" style="endArrow=none;html=1;rounded=0;entryX=0.5;entryY=1;entryDx=0;entryDy=0;exitX=0.5;exitY=0;exitDx=0;exitDy=0;" parent="1" source="M3GUtny6w7VFZLUFsRHC-28" target="M3GUtny6w7VFZLUFsRHC-8" edge="1">
          <mxGeometry width="50" height="50" relative="1" as="geometry">
            <mxPoint x="675" y="376" as="sourcePoint" />
            <mxPoint x="725" y="326" as="targetPoint" />
          </mxGeometry>
        </mxCell>
        <mxCell id="M3GUtny6w7VFZLUFsRHC-34" value="" style="endArrow=none;html=1;rounded=0;entryX=0.5;entryY=1;entryDx=0;entryDy=0;exitX=0.439;exitY=0.004;exitDx=0;exitDy=0;exitPerimeter=0;" parent="1" source="M3GUtny6w7VFZLUFsRHC-13" edge="1">
          <mxGeometry width="50" height="50" relative="1" as="geometry">
            <mxPoint x="665.66" y="445" as="sourcePoint" />
            <mxPoint x="665.66" y="401" as="targetPoint" />
          </mxGeometry>
        </mxCell>
        <mxCell id="M3GUtny6w7VFZLUFsRHC-35" value="" style="endArrow=none;html=1;rounded=0;exitX=1;exitY=0.5;exitDx=0;exitDy=0;entryX=0;entryY=0.5;entryDx=0;entryDy=0;" parent="1" source="sAkTe9yY6t8Xh1nZLeKb-1" target="M3GUtny6w7VFZLUFsRHC-29" edge="1">
          <mxGeometry width="50" height="50" relative="1" as="geometry">
            <mxPoint x="629" y="413" as="sourcePoint" />
            <mxPoint x="679" y="363" as="targetPoint" />
          </mxGeometry>
        </mxCell>
        <mxCell id="M3GUtny6w7VFZLUFsRHC-36" value="" style="endArrow=none;html=1;rounded=0;exitX=1;exitY=0.5;exitDx=0;exitDy=0;entryX=0.011;entryY=0.469;entryDx=0;entryDy=0;entryPerimeter=0;" parent="1" target="M3GUtny6w7VFZLUFsRHC-8" edge="1">
          <mxGeometry width="50" height="50" relative="1" as="geometry">
            <mxPoint x="541" y="244.76" as="sourcePoint" />
            <mxPoint x="604" y="244.76" as="targetPoint" />
          </mxGeometry>
        </mxCell>
        <mxCell id="M3GUtny6w7VFZLUFsRHC-37" value="1:1" style="text;html=1;align=center;verticalAlign=middle;whiteSpace=wrap;rounded=0;" parent="1" vertex="1">
          <mxGeometry x="660" y="430" width="43" height="18" as="geometry" />
        </mxCell>
        <mxCell id="M3GUtny6w7VFZLUFsRHC-38" value="1:N" style="text;html=1;align=center;verticalAlign=middle;whiteSpace=wrap;rounded=0;" parent="1" vertex="1">
          <mxGeometry x="660" y="277" width="43" height="15" as="geometry" />
        </mxCell>
        <mxCell id="M3GUtny6w7VFZLUFsRHC-39" value="&lt;b&gt;1:N&lt;/b&gt;" style="text;html=1;align=center;verticalAlign=middle;whiteSpace=wrap;rounded=0;" parent="1" vertex="1">
          <mxGeometry x="703" y="352" width="43" height="18" as="geometry" />
        </mxCell>
        <mxCell id="M3GUtny6w7VFZLUFsRHC-40" value="1:1" style="text;html=1;align=center;verticalAlign=middle;whiteSpace=wrap;rounded=0;" parent="1" vertex="1">
          <mxGeometry x="574" y="228" width="43" height="18" as="geometry" />
        </mxCell>
        <mxCell id="M3GUtny6w7VFZLUFsRHC-41" value="1:1" style="text;html=1;align=center;verticalAlign=middle;whiteSpace=wrap;rounded=0;" parent="1" vertex="1">
          <mxGeometry x="330.5" y="277" width="43" height="18" as="geometry" />
        </mxCell>
        <mxCell id="M3GUtny6w7VFZLUFsRHC-42" value="1:N" style="text;html=1;align=center;verticalAlign=middle;whiteSpace=wrap;rounded=0;" parent="1" vertex="1">
          <mxGeometry x="390" y="228" width="43" height="15" as="geometry" />
        </mxCell>
        <mxCell id="M3GUtny6w7VFZLUFsRHC-43" value="&lt;b&gt;1:N&lt;/b&gt;" style="text;html=1;align=center;verticalAlign=middle;whiteSpace=wrap;rounded=0;" parent="1" vertex="1">
          <mxGeometry x="479.5" y="290" width="43" height="18" as="geometry" />
        </mxCell>
        <mxCell id="M3GUtny6w7VFZLUFsRHC-61" value="1:N" style="text;html=1;align=center;verticalAlign=middle;whiteSpace=wrap;rounded=0;" parent="1" vertex="1">
          <mxGeometry x="335" y="431.5" width="43" height="15" as="geometry" />
        </mxCell>
        <mxCell id="M3GUtny6w7VFZLUFsRHC-62" value="&lt;b&gt;1:N&lt;/b&gt;" style="text;html=1;align=center;verticalAlign=middle;whiteSpace=wrap;rounded=0;" parent="1" vertex="1">
          <mxGeometry x="373.5" y="352" width="43" height="18" as="geometry" />
        </mxCell>
        <mxCell id="M3GUtny6w7VFZLUFsRHC-82" style="rounded=0;orthogonalLoop=1;jettySize=auto;html=1;exitX=1;exitY=1;exitDx=0;exitDy=0;entryX=0.1;entryY=0.066;entryDx=0;entryDy=0;entryPerimeter=0;" parent="1" source="sAkTe9yY6t8Xh1nZLeKb-30" target="sAkTe9yY6t8Xh1nZLeKb-1" edge="1">
          <mxGeometry relative="1" as="geometry" />
        </mxCell>
        <mxCell id="M3GUtny6w7VFZLUFsRHC-87" style="rounded=0;orthogonalLoop=1;jettySize=auto;html=1;exitX=0.5;exitY=1;exitDx=0;exitDy=0;entryX=0.871;entryY=0.083;entryDx=0;entryDy=0;entryPerimeter=0;" parent="1" source="M3GUtny6w7VFZLUFsRHC-4" target="sAkTe9yY6t8Xh1nZLeKb-1" edge="1">
          <mxGeometry relative="1" as="geometry" />
        </mxCell>
        <mxCell id="M3GUtny6w7VFZLUFsRHC-90" style="edgeStyle=orthogonalEdgeStyle;rounded=0;orthogonalLoop=1;jettySize=auto;html=1;exitX=0.5;exitY=1;exitDx=0;exitDy=0;entryX=0.34;entryY=0.015;entryDx=0;entryDy=0;entryPerimeter=0;" parent="1" source="M3GUtny6w7VFZLUFsRHC-9" target="M3GUtny6w7VFZLUFsRHC-8" edge="1">
          <mxGeometry relative="1" as="geometry" />
        </mxCell>
        <mxCell id="M3GUtny6w7VFZLUFsRHC-97" style="rounded=0;orthogonalLoop=1;jettySize=auto;html=1;exitX=0;exitY=0;exitDx=0;exitDy=0;entryX=0.931;entryY=0.937;entryDx=0;entryDy=0;entryPerimeter=0;" parent="1" source="M3GUtny6w7VFZLUFsRHC-17" target="M3GUtny6w7VFZLUFsRHC-13" edge="1">
          <mxGeometry relative="1" as="geometry" />
        </mxCell>
      </root>
    </mxGraphModel>
  </diagram>
  <diagram id="YYxm8lDbGbhozRdiBa5d" name="Diagrama-Relacional">
    <mxGraphModel dx="634" dy="836" grid="0" gridSize="10" guides="1" tooltips="1" connect="1" arrows="1" fold="1" page="0" pageScale="1" pageWidth="827" pageHeight="1169" math="0" shadow="0">
      <root>
        <mxCell id="0" />
        <mxCell id="1" parent="0" />
        <mxCell id="Vv-qtZDc3cKVNP00vZ1H-1" value="Partida" style="shape=table;startSize=30;container=1;collapsible=1;childLayout=tableLayout;fixedRows=1;rowLines=0;fontStyle=1;align=center;resizeLast=1;html=1;" parent="1" vertex="1">
          <mxGeometry x="1370.5" y="347" width="180" height="300" as="geometry">
            <mxRectangle x="-5" y="760" width="80" height="30" as="alternateBounds" />
          </mxGeometry>
        </mxCell>
        <mxCell id="Vv-qtZDc3cKVNP00vZ1H-2" value="" style="shape=tableRow;horizontal=0;startSize=0;swimlaneHead=0;swimlaneBody=0;fillColor=none;collapsible=0;dropTarget=0;points=[[0,0.5],[1,0.5]];portConstraint=eastwest;top=0;left=0;right=0;bottom=1;" parent="Vv-qtZDc3cKVNP00vZ1H-1" vertex="1">
          <mxGeometry y="30" width="180" height="30" as="geometry" />
        </mxCell>
        <mxCell id="Vv-qtZDc3cKVNP00vZ1H-3" value="PK" style="shape=partialRectangle;connectable=0;fillColor=none;top=0;left=0;bottom=0;right=0;fontStyle=1;overflow=hidden;whiteSpace=wrap;html=1;" parent="Vv-qtZDc3cKVNP00vZ1H-2" vertex="1">
          <mxGeometry width="30" height="30" as="geometry">
            <mxRectangle width="30" height="30" as="alternateBounds" />
          </mxGeometry>
        </mxCell>
        <mxCell id="Vv-qtZDc3cKVNP00vZ1H-4" value="partida_id" style="shape=partialRectangle;connectable=0;fillColor=none;top=0;left=0;bottom=0;right=0;align=left;spacingLeft=6;fontStyle=5;overflow=hidden;whiteSpace=wrap;html=1;" parent="Vv-qtZDc3cKVNP00vZ1H-2" vertex="1">
          <mxGeometry x="30" width="150" height="30" as="geometry">
            <mxRectangle width="150" height="30" as="alternateBounds" />
          </mxGeometry>
        </mxCell>
        <mxCell id="Vv-qtZDc3cKVNP00vZ1H-5" value="" style="shape=tableRow;horizontal=0;startSize=0;swimlaneHead=0;swimlaneBody=0;fillColor=none;collapsible=0;dropTarget=0;points=[[0,0.5],[1,0.5]];portConstraint=eastwest;top=0;left=0;right=0;bottom=0;" parent="Vv-qtZDc3cKVNP00vZ1H-1" vertex="1">
          <mxGeometry y="60" width="180" height="30" as="geometry" />
        </mxCell>
        <mxCell id="Vv-qtZDc3cKVNP00vZ1H-6" value="FK" style="shape=partialRectangle;connectable=0;fillColor=none;top=0;left=0;bottom=0;right=0;editable=1;overflow=hidden;whiteSpace=wrap;html=1;" parent="Vv-qtZDc3cKVNP00vZ1H-5" vertex="1">
          <mxGeometry width="30" height="30" as="geometry">
            <mxRectangle width="30" height="30" as="alternateBounds" />
          </mxGeometry>
        </mxCell>
        <mxCell id="Vv-qtZDc3cKVNP00vZ1H-7" value="ronda_id" style="shape=partialRectangle;connectable=0;fillColor=none;top=0;left=0;bottom=0;right=0;align=left;spacingLeft=6;overflow=hidden;whiteSpace=wrap;html=1;" parent="Vv-qtZDc3cKVNP00vZ1H-5" vertex="1">
          <mxGeometry x="30" width="150" height="30" as="geometry">
            <mxRectangle width="150" height="30" as="alternateBounds" />
          </mxGeometry>
        </mxCell>
        <mxCell id="Vv-qtZDc3cKVNP00vZ1H-8" value="" style="shape=tableRow;horizontal=0;startSize=0;swimlaneHead=0;swimlaneBody=0;fillColor=none;collapsible=0;dropTarget=0;points=[[0,0.5],[1,0.5]];portConstraint=eastwest;top=0;left=0;right=0;bottom=0;" parent="Vv-qtZDc3cKVNP00vZ1H-1" vertex="1">
          <mxGeometry y="90" width="180" height="30" as="geometry" />
        </mxCell>
        <mxCell id="Vv-qtZDc3cKVNP00vZ1H-9" value="FK" style="shape=partialRectangle;connectable=0;fillColor=none;top=0;left=0;bottom=0;right=0;editable=1;overflow=hidden;whiteSpace=wrap;html=1;" parent="Vv-qtZDc3cKVNP00vZ1H-8" vertex="1">
          <mxGeometry width="30" height="30" as="geometry">
            <mxRectangle width="30" height="30" as="alternateBounds" />
          </mxGeometry>
        </mxCell>
        <mxCell id="Vv-qtZDc3cKVNP00vZ1H-10" value="jugador_blancas_id" style="shape=partialRectangle;connectable=0;fillColor=none;top=0;left=0;bottom=0;right=0;align=left;spacingLeft=6;overflow=hidden;whiteSpace=wrap;html=1;" parent="Vv-qtZDc3cKVNP00vZ1H-8" vertex="1">
          <mxGeometry x="30" width="150" height="30" as="geometry">
            <mxRectangle width="150" height="30" as="alternateBounds" />
          </mxGeometry>
        </mxCell>
        <mxCell id="Vv-qtZDc3cKVNP00vZ1H-11" value="" style="shape=tableRow;horizontal=0;startSize=0;swimlaneHead=0;swimlaneBody=0;fillColor=none;collapsible=0;dropTarget=0;points=[[0,0.5],[1,0.5]];portConstraint=eastwest;top=0;left=0;right=0;bottom=0;" parent="Vv-qtZDc3cKVNP00vZ1H-1" vertex="1">
          <mxGeometry y="120" width="180" height="30" as="geometry" />
        </mxCell>
        <mxCell id="Vv-qtZDc3cKVNP00vZ1H-12" value="FK" style="shape=partialRectangle;connectable=0;fillColor=none;top=0;left=0;bottom=0;right=0;editable=1;overflow=hidden;whiteSpace=wrap;html=1;" parent="Vv-qtZDc3cKVNP00vZ1H-11" vertex="1">
          <mxGeometry width="30" height="30" as="geometry">
            <mxRectangle width="30" height="30" as="alternateBounds" />
          </mxGeometry>
        </mxCell>
        <mxCell id="Vv-qtZDc3cKVNP00vZ1H-13" value="jugador_negras_id" style="shape=partialRectangle;connectable=0;fillColor=none;top=0;left=0;bottom=0;right=0;align=left;spacingLeft=6;overflow=hidden;whiteSpace=wrap;html=1;" parent="Vv-qtZDc3cKVNP00vZ1H-11" vertex="1">
          <mxGeometry x="30" width="150" height="30" as="geometry">
            <mxRectangle width="150" height="30" as="alternateBounds" />
          </mxGeometry>
        </mxCell>
        <mxCell id="Vv-qtZDc3cKVNP00vZ1H-14" value="" style="shape=tableRow;horizontal=0;startSize=0;swimlaneHead=0;swimlaneBody=0;fillColor=none;collapsible=0;dropTarget=0;points=[[0,0.5],[1,0.5]];portConstraint=eastwest;top=0;left=0;right=0;bottom=0;" parent="Vv-qtZDc3cKVNP00vZ1H-1" vertex="1">
          <mxGeometry y="150" width="180" height="30" as="geometry" />
        </mxCell>
        <mxCell id="Vv-qtZDc3cKVNP00vZ1H-15" value="FK" style="shape=partialRectangle;connectable=0;fillColor=none;top=0;left=0;bottom=0;right=0;editable=1;overflow=hidden;whiteSpace=wrap;html=1;" parent="Vv-qtZDc3cKVNP00vZ1H-14" vertex="1">
          <mxGeometry width="30" height="30" as="geometry">
            <mxRectangle width="30" height="30" as="alternateBounds" />
          </mxGeometry>
        </mxCell>
        <mxCell id="Vv-qtZDc3cKVNP00vZ1H-16" value="ganador_id" style="shape=partialRectangle;connectable=0;fillColor=none;top=0;left=0;bottom=0;right=0;align=left;spacingLeft=6;overflow=hidden;whiteSpace=wrap;html=1;" parent="Vv-qtZDc3cKVNP00vZ1H-14" vertex="1">
          <mxGeometry x="30" width="150" height="30" as="geometry">
            <mxRectangle width="150" height="30" as="alternateBounds" />
          </mxGeometry>
        </mxCell>
        <mxCell id="Vv-qtZDc3cKVNP00vZ1H-17" value="" style="shape=tableRow;horizontal=0;startSize=0;swimlaneHead=0;swimlaneBody=0;fillColor=none;collapsible=0;dropTarget=0;points=[[0,0.5],[1,0.5]];portConstraint=eastwest;top=0;left=0;right=0;bottom=0;" parent="Vv-qtZDc3cKVNP00vZ1H-1" vertex="1">
          <mxGeometry y="180" width="180" height="30" as="geometry" />
        </mxCell>
        <mxCell id="Vv-qtZDc3cKVNP00vZ1H-18" value="" style="shape=partialRectangle;connectable=0;fillColor=none;top=0;left=0;bottom=0;right=0;editable=1;overflow=hidden;whiteSpace=wrap;html=1;" parent="Vv-qtZDc3cKVNP00vZ1H-17" vertex="1">
          <mxGeometry width="30" height="30" as="geometry">
            <mxRectangle width="30" height="30" as="alternateBounds" />
          </mxGeometry>
        </mxCell>
        <mxCell id="Vv-qtZDc3cKVNP00vZ1H-19" value="duración" style="shape=partialRectangle;connectable=0;fillColor=none;top=0;left=0;bottom=0;right=0;align=left;spacingLeft=6;overflow=hidden;whiteSpace=wrap;html=1;" parent="Vv-qtZDc3cKVNP00vZ1H-17" vertex="1">
          <mxGeometry x="30" width="150" height="30" as="geometry">
            <mxRectangle width="150" height="30" as="alternateBounds" />
          </mxGeometry>
        </mxCell>
        <mxCell id="Vv-qtZDc3cKVNP00vZ1H-20" value="" style="shape=tableRow;horizontal=0;startSize=0;swimlaneHead=0;swimlaneBody=0;fillColor=none;collapsible=0;dropTarget=0;points=[[0,0.5],[1,0.5]];portConstraint=eastwest;top=0;left=0;right=0;bottom=0;" parent="Vv-qtZDc3cKVNP00vZ1H-1" vertex="1">
          <mxGeometry y="210" width="180" height="30" as="geometry" />
        </mxCell>
        <mxCell id="Vv-qtZDc3cKVNP00vZ1H-21" value="" style="shape=partialRectangle;connectable=0;fillColor=none;top=0;left=0;bottom=0;right=0;editable=1;overflow=hidden;whiteSpace=wrap;html=1;" parent="Vv-qtZDc3cKVNP00vZ1H-20" vertex="1">
          <mxGeometry width="30" height="30" as="geometry">
            <mxRectangle width="30" height="30" as="alternateBounds" />
          </mxGeometry>
        </mxCell>
        <mxCell id="Vv-qtZDc3cKVNP00vZ1H-22" value="estado" style="shape=partialRectangle;connectable=0;fillColor=none;top=0;left=0;bottom=0;right=0;align=left;spacingLeft=6;overflow=hidden;whiteSpace=wrap;html=1;" parent="Vv-qtZDc3cKVNP00vZ1H-20" vertex="1">
          <mxGeometry x="30" width="150" height="30" as="geometry">
            <mxRectangle width="150" height="30" as="alternateBounds" />
          </mxGeometry>
        </mxCell>
        <mxCell id="Vv-qtZDc3cKVNP00vZ1H-23" value="Jugador" style="shape=table;startSize=30;container=1;collapsible=1;childLayout=tableLayout;fixedRows=1;rowLines=0;fontStyle=1;align=center;resizeLast=1;html=1;" parent="1" vertex="1">
          <mxGeometry x="1107" y="377" width="180" height="150" as="geometry" />
        </mxCell>
        <mxCell id="Vv-qtZDc3cKVNP00vZ1H-24" value="" style="shape=tableRow;horizontal=0;startSize=0;swimlaneHead=0;swimlaneBody=0;fillColor=none;collapsible=0;dropTarget=0;points=[[0,0.5],[1,0.5]];portConstraint=eastwest;top=0;left=0;right=0;bottom=1;" parent="Vv-qtZDc3cKVNP00vZ1H-23" vertex="1">
          <mxGeometry y="30" width="180" height="30" as="geometry" />
        </mxCell>
        <mxCell id="Vv-qtZDc3cKVNP00vZ1H-25" value="PK" style="shape=partialRectangle;connectable=0;fillColor=none;top=0;left=0;bottom=0;right=0;fontStyle=1;overflow=hidden;whiteSpace=wrap;html=1;" parent="Vv-qtZDc3cKVNP00vZ1H-24" vertex="1">
          <mxGeometry width="30" height="30" as="geometry">
            <mxRectangle width="30" height="30" as="alternateBounds" />
          </mxGeometry>
        </mxCell>
        <mxCell id="Vv-qtZDc3cKVNP00vZ1H-26" value="jugador_id" style="shape=partialRectangle;connectable=0;fillColor=none;top=0;left=0;bottom=0;right=0;align=left;spacingLeft=6;fontStyle=5;overflow=hidden;whiteSpace=wrap;html=1;" parent="Vv-qtZDc3cKVNP00vZ1H-24" vertex="1">
          <mxGeometry x="30" width="150" height="30" as="geometry">
            <mxRectangle width="150" height="30" as="alternateBounds" />
          </mxGeometry>
        </mxCell>
        <mxCell id="Vv-qtZDc3cKVNP00vZ1H-27" value="" style="shape=tableRow;horizontal=0;startSize=0;swimlaneHead=0;swimlaneBody=0;fillColor=none;collapsible=0;dropTarget=0;points=[[0,0.5],[1,0.5]];portConstraint=eastwest;top=0;left=0;right=0;bottom=0;" parent="Vv-qtZDc3cKVNP00vZ1H-23" vertex="1">
          <mxGeometry y="60" width="180" height="30" as="geometry" />
        </mxCell>
        <mxCell id="Vv-qtZDc3cKVNP00vZ1H-28" value="" style="shape=partialRectangle;connectable=0;fillColor=none;top=0;left=0;bottom=0;right=0;editable=1;overflow=hidden;whiteSpace=wrap;html=1;" parent="Vv-qtZDc3cKVNP00vZ1H-27" vertex="1">
          <mxGeometry width="30" height="30" as="geometry">
            <mxRectangle width="30" height="30" as="alternateBounds" />
          </mxGeometry>
        </mxCell>
        <mxCell id="Vv-qtZDc3cKVNP00vZ1H-29" value="nombre" style="shape=partialRectangle;connectable=0;fillColor=none;top=0;left=0;bottom=0;right=0;align=left;spacingLeft=6;overflow=hidden;whiteSpace=wrap;html=1;" parent="Vv-qtZDc3cKVNP00vZ1H-27" vertex="1">
          <mxGeometry x="30" width="150" height="30" as="geometry">
            <mxRectangle width="150" height="30" as="alternateBounds" />
          </mxGeometry>
        </mxCell>
        <mxCell id="Vv-qtZDc3cKVNP00vZ1H-30" value="" style="shape=tableRow;horizontal=0;startSize=0;swimlaneHead=0;swimlaneBody=0;fillColor=none;collapsible=0;dropTarget=0;points=[[0,0.5],[1,0.5]];portConstraint=eastwest;top=0;left=0;right=0;bottom=0;" parent="Vv-qtZDc3cKVNP00vZ1H-23" vertex="1">
          <mxGeometry y="90" width="180" height="30" as="geometry" />
        </mxCell>
        <mxCell id="Vv-qtZDc3cKVNP00vZ1H-31" value="" style="shape=partialRectangle;connectable=0;fillColor=none;top=0;left=0;bottom=0;right=0;editable=1;overflow=hidden;whiteSpace=wrap;html=1;" parent="Vv-qtZDc3cKVNP00vZ1H-30" vertex="1">
          <mxGeometry width="30" height="30" as="geometry">
            <mxRectangle width="30" height="30" as="alternateBounds" />
          </mxGeometry>
        </mxCell>
        <mxCell id="Vv-qtZDc3cKVNP00vZ1H-32" value="fecha_inscripcion" style="shape=partialRectangle;connectable=0;fillColor=none;top=0;left=0;bottom=0;right=0;align=left;spacingLeft=6;overflow=hidden;whiteSpace=wrap;html=1;" parent="Vv-qtZDc3cKVNP00vZ1H-30" vertex="1">
          <mxGeometry x="30" width="150" height="30" as="geometry">
            <mxRectangle width="150" height="30" as="alternateBounds" />
          </mxGeometry>
        </mxCell>
        <mxCell id="Vv-qtZDc3cKVNP00vZ1H-33" value="" style="shape=tableRow;horizontal=0;startSize=0;swimlaneHead=0;swimlaneBody=0;fillColor=none;collapsible=0;dropTarget=0;points=[[0,0.5],[1,0.5]];portConstraint=eastwest;top=0;left=0;right=0;bottom=0;" parent="Vv-qtZDc3cKVNP00vZ1H-23" vertex="1">
          <mxGeometry y="120" width="180" height="30" as="geometry" />
        </mxCell>
        <mxCell id="Vv-qtZDc3cKVNP00vZ1H-34" value="" style="shape=partialRectangle;connectable=0;fillColor=none;top=0;left=0;bottom=0;right=0;editable=1;overflow=hidden;whiteSpace=wrap;html=1;" parent="Vv-qtZDc3cKVNP00vZ1H-33" vertex="1">
          <mxGeometry width="30" height="30" as="geometry">
            <mxRectangle width="30" height="30" as="alternateBounds" />
          </mxGeometry>
        </mxCell>
        <mxCell id="Vv-qtZDc3cKVNP00vZ1H-35" value="" style="shape=partialRectangle;connectable=0;fillColor=none;top=0;left=0;bottom=0;right=0;align=left;spacingLeft=6;overflow=hidden;whiteSpace=wrap;html=1;" parent="Vv-qtZDc3cKVNP00vZ1H-33" vertex="1">
          <mxGeometry x="30" width="150" height="30" as="geometry">
            <mxRectangle width="150" height="30" as="alternateBounds" />
          </mxGeometry>
        </mxCell>
        <mxCell id="Vv-qtZDc3cKVNP00vZ1H-36" value="Ronda" style="shape=table;startSize=30;container=1;collapsible=1;childLayout=tableLayout;fixedRows=1;rowLines=0;fontStyle=1;align=center;resizeLast=1;html=1;" parent="1" vertex="1">
          <mxGeometry x="1631" y="417" width="180" height="150" as="geometry" />
        </mxCell>
        <mxCell id="Vv-qtZDc3cKVNP00vZ1H-37" value="" style="shape=tableRow;horizontal=0;startSize=0;swimlaneHead=0;swimlaneBody=0;fillColor=none;collapsible=0;dropTarget=0;points=[[0,0.5],[1,0.5]];portConstraint=eastwest;top=0;left=0;right=0;bottom=1;" parent="Vv-qtZDc3cKVNP00vZ1H-36" vertex="1">
          <mxGeometry y="30" width="180" height="30" as="geometry" />
        </mxCell>
        <mxCell id="Vv-qtZDc3cKVNP00vZ1H-38" value="PK" style="shape=partialRectangle;connectable=0;fillColor=none;top=0;left=0;bottom=0;right=0;fontStyle=1;overflow=hidden;whiteSpace=wrap;html=1;" parent="Vv-qtZDc3cKVNP00vZ1H-37" vertex="1">
          <mxGeometry width="30" height="30" as="geometry">
            <mxRectangle width="30" height="30" as="alternateBounds" />
          </mxGeometry>
        </mxCell>
        <mxCell id="Vv-qtZDc3cKVNP00vZ1H-39" value="ronda_id" style="shape=partialRectangle;connectable=0;fillColor=none;top=0;left=0;bottom=0;right=0;align=left;spacingLeft=6;fontStyle=5;overflow=hidden;whiteSpace=wrap;html=1;" parent="Vv-qtZDc3cKVNP00vZ1H-37" vertex="1">
          <mxGeometry x="30" width="150" height="30" as="geometry">
            <mxRectangle width="150" height="30" as="alternateBounds" />
          </mxGeometry>
        </mxCell>
        <mxCell id="Vv-qtZDc3cKVNP00vZ1H-40" value="" style="shape=tableRow;horizontal=0;startSize=0;swimlaneHead=0;swimlaneBody=0;fillColor=none;collapsible=0;dropTarget=0;points=[[0,0.5],[1,0.5]];portConstraint=eastwest;top=0;left=0;right=0;bottom=0;" parent="Vv-qtZDc3cKVNP00vZ1H-36" vertex="1">
          <mxGeometry y="60" width="180" height="30" as="geometry" />
        </mxCell>
        <mxCell id="Vv-qtZDc3cKVNP00vZ1H-41" value="FK" style="shape=partialRectangle;connectable=0;fillColor=none;top=0;left=0;bottom=0;right=0;editable=1;overflow=hidden;whiteSpace=wrap;html=1;" parent="Vv-qtZDc3cKVNP00vZ1H-40" vertex="1">
          <mxGeometry width="30" height="30" as="geometry">
            <mxRectangle width="30" height="30" as="alternateBounds" />
          </mxGeometry>
        </mxCell>
        <mxCell id="Vv-qtZDc3cKVNP00vZ1H-42" value="torneo_id" style="shape=partialRectangle;connectable=0;fillColor=none;top=0;left=0;bottom=0;right=0;align=left;spacingLeft=6;overflow=hidden;whiteSpace=wrap;html=1;" parent="Vv-qtZDc3cKVNP00vZ1H-40" vertex="1">
          <mxGeometry x="30" width="150" height="30" as="geometry">
            <mxRectangle width="150" height="30" as="alternateBounds" />
          </mxGeometry>
        </mxCell>
        <mxCell id="Vv-qtZDc3cKVNP00vZ1H-43" value="" style="shape=tableRow;horizontal=0;startSize=0;swimlaneHead=0;swimlaneBody=0;fillColor=none;collapsible=0;dropTarget=0;points=[[0,0.5],[1,0.5]];portConstraint=eastwest;top=0;left=0;right=0;bottom=0;" parent="Vv-qtZDc3cKVNP00vZ1H-36" vertex="1">
          <mxGeometry y="90" width="180" height="30" as="geometry" />
        </mxCell>
        <mxCell id="Vv-qtZDc3cKVNP00vZ1H-44" value="" style="shape=partialRectangle;connectable=0;fillColor=none;top=0;left=0;bottom=0;right=0;editable=1;overflow=hidden;whiteSpace=wrap;html=1;" parent="Vv-qtZDc3cKVNP00vZ1H-43" vertex="1">
          <mxGeometry width="30" height="30" as="geometry">
            <mxRectangle width="30" height="30" as="alternateBounds" />
          </mxGeometry>
        </mxCell>
        <mxCell id="Vv-qtZDc3cKVNP00vZ1H-45" value="nombre_ronda" style="shape=partialRectangle;connectable=0;fillColor=none;top=0;left=0;bottom=0;right=0;align=left;spacingLeft=6;overflow=hidden;whiteSpace=wrap;html=1;" parent="Vv-qtZDc3cKVNP00vZ1H-43" vertex="1">
          <mxGeometry x="30" width="150" height="30" as="geometry">
            <mxRectangle width="150" height="30" as="alternateBounds" />
          </mxGeometry>
        </mxCell>
        <mxCell id="Vv-qtZDc3cKVNP00vZ1H-46" value="" style="shape=tableRow;horizontal=0;startSize=0;swimlaneHead=0;swimlaneBody=0;fillColor=none;collapsible=0;dropTarget=0;points=[[0,0.5],[1,0.5]];portConstraint=eastwest;top=0;left=0;right=0;bottom=0;" parent="Vv-qtZDc3cKVNP00vZ1H-36" vertex="1">
          <mxGeometry y="120" width="180" height="30" as="geometry" />
        </mxCell>
        <mxCell id="Vv-qtZDc3cKVNP00vZ1H-47" value="" style="shape=partialRectangle;connectable=0;fillColor=none;top=0;left=0;bottom=0;right=0;editable=1;overflow=hidden;whiteSpace=wrap;html=1;" parent="Vv-qtZDc3cKVNP00vZ1H-46" vertex="1">
          <mxGeometry width="30" height="30" as="geometry">
            <mxRectangle width="30" height="30" as="alternateBounds" />
          </mxGeometry>
        </mxCell>
        <mxCell id="Vv-qtZDc3cKVNP00vZ1H-48" value="fecha" style="shape=partialRectangle;connectable=0;fillColor=none;top=0;left=0;bottom=0;right=0;align=left;spacingLeft=6;overflow=hidden;whiteSpace=wrap;html=1;" parent="Vv-qtZDc3cKVNP00vZ1H-46" vertex="1">
          <mxGeometry x="30" width="150" height="30" as="geometry">
            <mxRectangle width="150" height="30" as="alternateBounds" />
          </mxGeometry>
        </mxCell>
        <mxCell id="Vv-qtZDc3cKVNP00vZ1H-49" value="fecha_hora_inicio" style="shape=partialRectangle;connectable=0;fillColor=none;top=0;left=0;bottom=0;right=0;align=left;spacingLeft=6;overflow=hidden;whiteSpace=wrap;html=1;" parent="1" vertex="1">
          <mxGeometry x="1400.5" y="587" width="150" height="30" as="geometry">
            <mxRectangle width="150" height="30" as="alternateBounds" />
          </mxGeometry>
        </mxCell>
        <mxCell id="Vv-qtZDc3cKVNP00vZ1H-50" value="fecha_hora_fin" style="shape=partialRectangle;connectable=0;fillColor=none;top=0;left=0;bottom=0;right=0;align=left;spacingLeft=6;overflow=hidden;whiteSpace=wrap;html=1;" parent="1" vertex="1">
          <mxGeometry x="1400.5" y="617" width="150" height="30" as="geometry">
            <mxRectangle width="150" height="30" as="alternateBounds" />
          </mxGeometry>
        </mxCell>
        <mxCell id="Vv-qtZDc3cKVNP00vZ1H-51" value="Torneo" style="shape=table;startSize=30;container=1;collapsible=1;childLayout=tableLayout;fixedRows=1;rowLines=0;fontStyle=1;align=center;resizeLast=1;html=1;" parent="1" vertex="1">
          <mxGeometry x="1880" y="422" width="180" height="150" as="geometry" />
        </mxCell>
        <mxCell id="Vv-qtZDc3cKVNP00vZ1H-52" value="" style="shape=tableRow;horizontal=0;startSize=0;swimlaneHead=0;swimlaneBody=0;fillColor=none;collapsible=0;dropTarget=0;points=[[0,0.5],[1,0.5]];portConstraint=eastwest;top=0;left=0;right=0;bottom=1;" parent="Vv-qtZDc3cKVNP00vZ1H-51" vertex="1">
          <mxGeometry y="30" width="180" height="30" as="geometry" />
        </mxCell>
        <mxCell id="Vv-qtZDc3cKVNP00vZ1H-53" value="PK" style="shape=partialRectangle;connectable=0;fillColor=none;top=0;left=0;bottom=0;right=0;fontStyle=1;overflow=hidden;whiteSpace=wrap;html=1;" parent="Vv-qtZDc3cKVNP00vZ1H-52" vertex="1">
          <mxGeometry width="30" height="30" as="geometry">
            <mxRectangle width="30" height="30" as="alternateBounds" />
          </mxGeometry>
        </mxCell>
        <mxCell id="Vv-qtZDc3cKVNP00vZ1H-54" value="torneo_id" style="shape=partialRectangle;connectable=0;fillColor=none;top=0;left=0;bottom=0;right=0;align=left;spacingLeft=6;fontStyle=5;overflow=hidden;whiteSpace=wrap;html=1;" parent="Vv-qtZDc3cKVNP00vZ1H-52" vertex="1">
          <mxGeometry x="30" width="150" height="30" as="geometry">
            <mxRectangle width="150" height="30" as="alternateBounds" />
          </mxGeometry>
        </mxCell>
        <mxCell id="Vv-qtZDc3cKVNP00vZ1H-55" value="" style="shape=tableRow;horizontal=0;startSize=0;swimlaneHead=0;swimlaneBody=0;fillColor=none;collapsible=0;dropTarget=0;points=[[0,0.5],[1,0.5]];portConstraint=eastwest;top=0;left=0;right=0;bottom=0;" parent="Vv-qtZDc3cKVNP00vZ1H-51" vertex="1">
          <mxGeometry y="60" width="180" height="30" as="geometry" />
        </mxCell>
        <mxCell id="Vv-qtZDc3cKVNP00vZ1H-56" value="" style="shape=partialRectangle;connectable=0;fillColor=none;top=0;left=0;bottom=0;right=0;editable=1;overflow=hidden;whiteSpace=wrap;html=1;" parent="Vv-qtZDc3cKVNP00vZ1H-55" vertex="1">
          <mxGeometry width="30" height="30" as="geometry">
            <mxRectangle width="30" height="30" as="alternateBounds" />
          </mxGeometry>
        </mxCell>
        <mxCell id="Vv-qtZDc3cKVNP00vZ1H-57" value="nombre" style="shape=partialRectangle;connectable=0;fillColor=none;top=0;left=0;bottom=0;right=0;align=left;spacingLeft=6;overflow=hidden;whiteSpace=wrap;html=1;" parent="Vv-qtZDc3cKVNP00vZ1H-55" vertex="1">
          <mxGeometry x="30" width="150" height="30" as="geometry">
            <mxRectangle width="150" height="30" as="alternateBounds" />
          </mxGeometry>
        </mxCell>
        <mxCell id="Vv-qtZDc3cKVNP00vZ1H-58" value="" style="shape=tableRow;horizontal=0;startSize=0;swimlaneHead=0;swimlaneBody=0;fillColor=none;collapsible=0;dropTarget=0;points=[[0,0.5],[1,0.5]];portConstraint=eastwest;top=0;left=0;right=0;bottom=0;" parent="Vv-qtZDc3cKVNP00vZ1H-51" vertex="1">
          <mxGeometry y="90" width="180" height="30" as="geometry" />
        </mxCell>
        <mxCell id="Vv-qtZDc3cKVNP00vZ1H-59" value="" style="shape=partialRectangle;connectable=0;fillColor=none;top=0;left=0;bottom=0;right=0;editable=1;overflow=hidden;whiteSpace=wrap;html=1;" parent="Vv-qtZDc3cKVNP00vZ1H-58" vertex="1">
          <mxGeometry width="30" height="30" as="geometry">
            <mxRectangle width="30" height="30" as="alternateBounds" />
          </mxGeometry>
        </mxCell>
        <mxCell id="Vv-qtZDc3cKVNP00vZ1H-60" value="fecha_inicio" style="shape=partialRectangle;connectable=0;fillColor=none;top=0;left=0;bottom=0;right=0;align=left;spacingLeft=6;overflow=hidden;whiteSpace=wrap;html=1;" parent="Vv-qtZDc3cKVNP00vZ1H-58" vertex="1">
          <mxGeometry x="30" width="150" height="30" as="geometry">
            <mxRectangle width="150" height="30" as="alternateBounds" />
          </mxGeometry>
        </mxCell>
        <mxCell id="Vv-qtZDc3cKVNP00vZ1H-61" value="" style="shape=tableRow;horizontal=0;startSize=0;swimlaneHead=0;swimlaneBody=0;fillColor=none;collapsible=0;dropTarget=0;points=[[0,0.5],[1,0.5]];portConstraint=eastwest;top=0;left=0;right=0;bottom=0;" parent="Vv-qtZDc3cKVNP00vZ1H-51" vertex="1">
          <mxGeometry y="120" width="180" height="30" as="geometry" />
        </mxCell>
        <mxCell id="Vv-qtZDc3cKVNP00vZ1H-62" value="" style="shape=partialRectangle;connectable=0;fillColor=none;top=0;left=0;bottom=0;right=0;editable=1;overflow=hidden;whiteSpace=wrap;html=1;" parent="Vv-qtZDc3cKVNP00vZ1H-61" vertex="1">
          <mxGeometry width="30" height="30" as="geometry">
            <mxRectangle width="30" height="30" as="alternateBounds" />
          </mxGeometry>
        </mxCell>
        <mxCell id="Vv-qtZDc3cKVNP00vZ1H-63" value="fecha_fin" style="shape=partialRectangle;connectable=0;fillColor=none;top=0;left=0;bottom=0;right=0;align=left;spacingLeft=6;overflow=hidden;whiteSpace=wrap;html=1;" parent="Vv-qtZDc3cKVNP00vZ1H-61" vertex="1">
          <mxGeometry x="30" width="150" height="30" as="geometry">
            <mxRectangle width="150" height="30" as="alternateBounds" />
          </mxGeometry>
        </mxCell>
        <mxCell id="Vv-qtZDc3cKVNP00vZ1H-86" value="" style="edgeStyle=entityRelationEdgeStyle;fontSize=12;html=1;endArrow=ERoneToMany;rounded=0;exitX=0;exitY=0.5;exitDx=0;exitDy=0;entryX=1;entryY=0.5;entryDx=0;entryDy=0;" parent="1" source="Vv-qtZDc3cKVNP00vZ1H-37" target="Vv-qtZDc3cKVNP00vZ1H-5" edge="1">
          <mxGeometry width="100" height="100" relative="1" as="geometry">
            <mxPoint x="1121" y="507" as="sourcePoint" />
            <mxPoint x="1221" y="407" as="targetPoint" />
          </mxGeometry>
        </mxCell>
        <mxCell id="Vv-qtZDc3cKVNP00vZ1H-87" value="" style="edgeStyle=entityRelationEdgeStyle;fontSize=12;html=1;endArrow=ERoneToMany;rounded=0;exitX=-0.002;exitY=0.328;exitDx=0;exitDy=0;entryX=0.985;entryY=0.371;entryDx=0;entryDy=0;entryPerimeter=0;exitPerimeter=0;" parent="1" source="Vv-qtZDc3cKVNP00vZ1H-8" target="Vv-qtZDc3cKVNP00vZ1H-24" edge="1">
          <mxGeometry width="100" height="100" relative="1" as="geometry">
            <mxPoint x="1320.5" y="451" as="sourcePoint" />
            <mxPoint x="1251" y="417" as="targetPoint" />
            <Array as="points">
              <mxPoint x="1361" y="457" />
              <mxPoint x="1311" y="437" />
              <mxPoint x="1321" y="437" />
            </Array>
          </mxGeometry>
        </mxCell>
        <mxCell id="Vv-qtZDc3cKVNP00vZ1H-88" value="" style="endArrow=none;html=1;rounded=0;exitX=0;exitY=0.5;exitDx=0;exitDy=0;" parent="1" source="Vv-qtZDc3cKVNP00vZ1H-14" edge="1">
          <mxGeometry width="50" height="50" relative="1" as="geometry">
            <mxPoint x="1301" y="527" as="sourcePoint" />
            <mxPoint x="1341" y="447" as="targetPoint" />
          </mxGeometry>
        </mxCell>
        <mxCell id="Vv-qtZDc3cKVNP00vZ1H-89" value="" style="endArrow=none;html=1;rounded=0;exitX=0;exitY=0.5;exitDx=0;exitDy=0;" parent="1" source="Vv-qtZDc3cKVNP00vZ1H-11" edge="1">
          <mxGeometry width="50" height="50" relative="1" as="geometry">
            <mxPoint x="1341" y="497" as="sourcePoint" />
            <mxPoint x="1341" y="447" as="targetPoint" />
          </mxGeometry>
        </mxCell>
        <mxCell id="Vv-qtZDc3cKVNP00vZ1H-90" value="" style="edgeStyle=entityRelationEdgeStyle;fontSize=12;html=1;endArrow=ERoneToMany;rounded=0;exitX=0;exitY=0.5;exitDx=0;exitDy=0;entryX=1;entryY=0.5;entryDx=0;entryDy=0;" parent="1" source="Vv-qtZDc3cKVNP00vZ1H-52" target="Vv-qtZDc3cKVNP00vZ1H-40" edge="1">
          <mxGeometry width="100" height="100" relative="1" as="geometry">
            <mxPoint x="1511" y="557" as="sourcePoint" />
            <mxPoint x="1611" y="457" as="targetPoint" />
          </mxGeometry>
        </mxCell>
      </root>
    </mxGraphModel>
  </diagram>
</mxfile>
